Coordinates
version=1
nRows=14
nColumns=24
inDegrees=yes

Units are S.I. units (second, meters, Newtons, ...)
Angles are in degrees.

endheader
time	pelvis_tilt	pelvis_list	pelvis_rotation	pelvis_tx	pelvis_ty	pelvis_tz	hip_flexion_r	hip_adduction_r	hip_rotation_r	knee_angle_r	ankle_angle_r	subtalar_angle_r	mtp_angle_r	hip_flexion_l	hip_adduction_l	hip_rotation_l	knee_angle_l	ankle_angle_l	subtalar_angle_l	mtp_angle_l	lumbar_extension	lumbar_bending	lumbar_rotation
      6.37000000	      8.00637711	     -2.18496614	      0.08790806	      0.55577896	      0.94819196	     -0.12192164	     -5.61107230	      8.08278664	     -1.78022999	     -6.56802883	     11.46381779	      1.10435681	      0.00000000	      7.32009048	     -2.60919503	     -4.89135369	    -56.35765184	      2.10798585	    -13.96127395	      0.00000000	    -23.92799787	      2.62400125	      0.47314940
      6.38000000	      7.85518589	     -2.02713746	     -0.10375286	      0.56507163	      0.94837298	     -0.12154969	     -6.21086413	      7.89648713	     -1.81823792	     -6.32005389	     11.86136620	      1.44247006	      0.00000000	      8.38108446	     -2.41100574	     -4.91168500	    -55.34666497	      3.00081168	    -13.82277419	      0.00000000	    -23.90972718	      2.34382792	      0.73820602
      6.39000000	      7.69150604	     -1.86675382	     -0.28740441	      0.57440880	      0.94844086	     -0.12125063	     -6.79959860	      7.70723762	     -1.83558474	     -6.06834210	     12.21267434	      1.61337573	      0.00000000	      9.35251395	     -2.19275632	     -4.93228809	    -54.02465121	      3.67991024	    -13.91472360	      0.00000000	    -23.86575103	      2.07437408	      0.94352617
      6.40000000	      7.51385355	     -1.73943296	     -0.43814581	      0.58372896	      0.94836589	     -0.12103307	     -7.36293817	      7.55861068	     -1.83146050	     -5.83306013	     12.53555924	      1.77145998	      0.00000000	     10.25959817	     -1.99111072	     -4.90850898	    -52.44636143	      4.27168954	    -14.03009435	      0.00000000	    -23.81917939	      1.85332931	      1.17913639
      6.41000000	      7.35836764	     -1.63475910	     -0.58614523	      0.59305427	      0.94820305	     -0.12088788	     -7.92552817	      7.42284481	     -1.98719079	     -5.63933343	     13.00622447	      2.24319083	      0.00000000	     11.04546386	     -1.81339820	     -4.91934956	    -50.59590585	      4.71812439	    -14.23981060	      0.00000000	    -23.81739002	      1.67224134	      1.45085040
      6.42000000	      7.14756386	     -1.54730239	     -0.69315865	      0.60240869	      0.94781963	     -0.12080537	     -8.43100575	      7.32400586	     -1.96778141	     -5.44342286	     13.34687132	      2.29173344	      0.00000000	     11.79910192	     -1.64600227	     -4.91207064	    -48.48944758	      5.08905940	    -14.48109420	      0.00000000	    -23.73904122	      1.51457182	      1.66979344
      6.43000000	      6.98173529	     -1.50451933	     -0.79042871	      0.61179066	      0.94736913	     -0.12079684	     -8.98200727	      7.26933966	     -1.94525518	     -5.25916598	     13.69391146	      2.41364689	      0.00000000	     12.38741174	     -1.50458363	     -4.88492538	    -46.10002234	      5.26751648	    -14.90602704	      0.00000000	    -23.71991528	      1.41501876	      1.94877522
      6.44000000	      6.81280739	     -1.50956171	     -0.86504543	      0.62122291	      0.94676351	     -0.12085922	     -9.52897452	      7.26548105	     -1.96592130	     -5.07964792	     14.02308325	      2.52226596	      0.00000000	     12.87522617	     -1.41278356	     -4.87604552	    -43.46672694	      5.38588507	    -15.30795201	      0.00000000	    -23.69051733	      1.38059915	      2.21360133
      6.45000000	      6.64389767	     -1.56255630	     -0.93000056	      0.63072036	      0.94600996	     -0.12098087	    -10.08385250	      7.30980772	     -1.99253330	     -4.89678617	     14.34777847	      2.62307304	      0.00000000	     13.25593235	     -1.36914124	     -4.89272475	    -40.60185527	      5.45068587	    -15.57061285	      0.00000000	    -23.65329011	      1.40904278	      2.49541779
      6.46000000	      6.47888448	     -1.66628800	     -0.98563411	      0.64029807	      0.94510825	     -0.12116930	    -10.65940074	      7.40378593	     -2.02828118	     -4.69880543	     14.65632566	      2.72068935	      0.00000000	     13.52792136	     -1.37178988	     -4.92871136	    -37.52526284	      5.48232643	    -15.61176912	      0.00000000	    -23.60605272	      1.50316874	      2.79546150
      6.47000000	      6.27422075	     -1.80501935	     -1.04656034	      0.64996714	      0.94400395	     -0.12141942	    -11.20477611	      7.52760240	     -2.04551934	     -4.49616324	     14.93429362	      2.76959318	      0.00000000	     13.74540038	     -1.40623962	     -5.01146558	    -34.26678950	      5.51529796	    -15.32588887	      0.00000000	    -23.49371301	      1.64945834	      3.10990890
      6.48000000	      6.17258635	     -2.00932808	     -1.09751076	      0.65976631	      0.94288445	     -0.12170367	    -11.90357885	      7.71523609	     -2.07902319	     -4.24041841	     15.22625740	      2.90563382	      0.00000000	     13.75677260	     -1.49976659	     -5.11070999	    -30.85876183	      5.56594921	    -14.57939962	      0.00000000	    -23.48691145	      1.86059231	      3.46382728
      6.49000000	      6.05423991	     -2.24491089	     -1.17838755	      0.66967417	      0.94160194	     -0.12201502	    -12.60060553	      7.92217910	     -2.02509277	     -3.97940896	     15.52058292	      2.99508242	      0.00000000	     13.71024587	     -1.62273651	     -5.29000619	    -27.34999040	      5.61645559	    -13.41317222	      0.00000000	    -23.44070345	      2.11000159	      3.86579450
      6.50000000	      5.91440324	     -2.51462736	     -1.25110603	      0.67969484	      0.94016250	     -0.12236393	    -13.27232286	      8.16054018	     -1.99690958	     -3.74192469	     15.72987112	      3.05505787	      0.00000000	     13.63800224	     -1.77570870	     -5.52697895	    -23.81229297	      5.80624083	    -11.58559565	      0.00000000	    -23.35326191	      2.39870011	      4.24090796
